HIERARCHY
ROOT root
{
	OFFSET	0	13.1	24.9
	CHANNELS 6  Xposition Yposition Zposition Xrotation Yrotation Zrotation
	JOINT spine_1
	{
		OFFSET	0	9.99999	0
		CHANNELS 3  Xrotation Yrotation Zrotation
		JOINT spine_2
		{
			OFFSET	0	112	-10
			CHANNELS 3  Xrotation Yrotation Zrotation
			JOINT spine_3
			{
				OFFSET	0	206.5	19.3
				CHANNELS 3  Xrotation Yrotation Zrotation
				JOINT spine_4
				{
					OFFSET	0	110.4	14.6
					CHANNELS 3  Xrotation Yrotation Zrotation
					JOINT neck_1
					{
						OFFSET	0	71.8	-50.3
						CHANNELS 3  Xrotation Yrotation Zrotation
						JOINT neck_2
						{
							OFFSET	0	86.2	-25.8
							CHANNELS 3  Xrotation Yrotation Zrotation
							JOINT head_ee
							{
								OFFSET	0	179.8	-8.7
								CHANNELS 3  Xrotation Yrotation Zrotation
								End Site
								{
									OFFSET	1	0	0
								}
							}
						}
					}
					JOINT left_clavicle
					{
						OFFSET	-43.2	22.4	-70.8
						CHANNELS 3  Xrotation Yrotation Zrotation
						JOINT left_shoulder
						{
							OFFSET	-93.9	-5.79999	48.7
							CHANNELS 3  Xrotation Yrotation Zrotation
							JOINT left_elbow
							{
								OFFSET	-291.4	-30.8	15.2
								CHANNELS 3  Xrotation Yrotation Zrotation
								JOINT left_lowarm_twist
								{
									OFFSET	-110.7	-3.89999	13.6
									CHANNELS 3  Xrotation Yrotation Zrotation
									JOINT left_hand
									{
										OFFSET	-110.7	-3.89999	13.6
										CHANNELS 3  Xrotation Yrotation Zrotation
										JOINT left_ee
										{
											OFFSET	-80.8	-5.10001	12.1
											CHANNELS 3  Xrotation Yrotation Zrotation
											End Site
											{
												OFFSET	1	0	0
											}
										}
									}
								}
							}
						}
					}
					JOINT right_clavicle
					{
						OFFSET	43.2	22.4	-70.8
						CHANNELS 3  Xrotation Yrotation Zrotation
						JOINT right_shoulder
						{
							OFFSET	93.9	-5.79999	48.7
							CHANNELS 3  Xrotation Yrotation Zrotation
							JOINT right_elbow
							{
								OFFSET	291.4	-30.8	15.2
								CHANNELS 3  Xrotation Yrotation Zrotation
								JOINT right_lowarm_twist
								{
									OFFSET	110.7	-3.89999	13.6
									CHANNELS 3  Xrotation Yrotation Zrotation
									JOINT right_hand
									{
										OFFSET	110.7	-3.89999	13.6
										CHANNELS 3  Xrotation Yrotation Zrotation
										JOINT right_ee
										{
											OFFSET	80.8	-5.10001	12.1
											CHANNELS 3  Xrotation Yrotation Zrotation
											End Site
											{
												OFFSET	1	0	0
											}
										}
									}
								}
							}
						}
					}
				}
			}
		}
	}
	JOINT left_hip
	{
		OFFSET	-82.8	-127.5	0.300001
		CHANNELS 3  Xrotation Yrotation Zrotation
		JOINT left_knee
		{
			OFFSET	-28.2	-396.7	2.2
			CHANNELS 3  Xrotation Yrotation Zrotation
			JOINT left_ankle
			{
				OFFSET	-11.7	-411.3	35.4
				CHANNELS 3  Xrotation Yrotation Zrotation
				JOINT left_toes
				{
					OFFSET	0	-60	-88.6
					CHANNELS 3  Xrotation Yrotation Zrotation
					JOINT left_foot_ee
					{
						OFFSET	-22.5	-16.5	-42.2
						CHANNELS 3  Xrotation Yrotation Zrotation
						End Site
						{
							OFFSET	1	0	0
						}
					}
				}
			}
		}
	}
	JOINT right_hip
	{
		OFFSET	82.8	-127.5	0.300001
		CHANNELS 3  Xrotation Yrotation Zrotation
		JOINT right_knee
		{
			OFFSET	28.2	-396.7	2.2
			CHANNELS 3  Xrotation Yrotation Zrotation
			JOINT right_ankle
			{
				OFFSET	11.7	-411.3	35.4
				CHANNELS 3  Xrotation Yrotation Zrotation
				JOINT right_toes
				{
					OFFSET	0	-60	-88.6
					CHANNELS 3  Xrotation Yrotation Zrotation
					JOINT right_foot_ee
					{
						OFFSET	22.5	-16.5	-42.2
						CHANNELS 3  Xrotation Yrotation Zrotation
						End Site
						{
							OFFSET	1	0	0
						}
					}
				}
			}
		}
	}
}
MOTION
Frames: 9
Frame Time: 0.02
3337.28 712.404 -684.888 -21.2494 49.4491 12.4492 4.95342 0.307147 1.26013 4.95428 0.226346 1.27711 4.95859 0.0651122 1.29538 4.95635 0.268859 1.26885 -5.04086 16.768 5.24846 -4.84354 27.0018 8.22655 -0.0 0.0 -0.0 3.83097 12.362 7.86483 -18.5902 -36.4999 50.0217 4.14911 -64.0363 2.59517 64.3562 -2.17672 -7.49476 3.51566 -15.0266 17.4384 -0.0 0.0 -0.0 8.84325 -10.7716 -16.6503 -43.818 16.1414 -48.948 0.45695 12.7547 -0.0510726 35.086 0.118643 4.41119 0.161891 0.353322 -0.933099 0.0 0.0 0.0 -6.00279 4.93363 13.3533 -4.83443 0.168641 0.722556 37.7835 -27.0019 -5.50187 40.03 -0.0 -0.0 -0.0 0.0 -0.0 52.3152 -19.8614 4.79571 -11.9002 -0.304215 -1.79767 -13.9493 25.3948 -2.52374 16.6766 -0.0 -0.0 0.0 0.0 0.0 
3322.26 712.692 -702.203 -21.2958 49.5757 13.0325 4.66116 0.255387 1.18657 4.66192 0.17937 1.20042 4.66509 0.0218531 1.21354 4.6631 0.213222 1.19487 -5.05292 16.7733 5.26483 -4.85611 27.0023 8.24646 -0.0 0.0 -0.0 3.65511 12.0483 7.55987 -19.6701 -35.9329 50.4129 3.86457 -62.4021 2.34112 63.9721 -2.14003 -7.46189 3.43469 -14.5836 17.0898 -0.0 0.0 -0.0 9.13579 -10.8375 -17.1765 -43.9691 16.1497 -49.7953 0.450217 12.5728 -0.0495964 35.0747 0.118168 4.40982 0.106505 -0.554715 -0.943815 0.0 0.0 0.0 -6.52421 4.18604 13.3352 -5.09395 0.175962 0.761711 37.9179 -27.4161 -5.54043 40.1249 -0.0 -0.0 -0.0 0.0 -0.0 51.517 -20.443 4.60891 -14.4397 -0.320424 -2.18693 -14.8332 24.1313 -2.64692 16.549 -0.0 -0.0 0.0 0.0 0.0 
3301.51 711.342 -725.651 -22.335 49.7101 13.822 4.54759 0.262941 1.05225 4.54819 0.195455 1.06685 4.55139 0.0530119 1.08331 4.54982 0.223425 1.06134 -5.55782 16.6277 5.16931 -5.40099 26.9231 8.23169 -0.0 0.0 -0.0 3.10159 11.7757 6.61445 -21.3198 -35.3399 50.2238 3.58843 -60.6245 2.09839 63.8333 -2.12683 -7.44995 3.33328 -13.9673 16.6804 -0.0 0.0 -0.0 9.59008 -10.6493 -18.0276 -43.4148 16.4303 -50.513 0.455991 12.7288 -0.0508611 35.1093 0.119614 4.414 0.0944711 -1.21534 -1.14016 0.0 0.0 0.0 -8.32122 3.38456 12.4533 -6.67343 0.216683 1.00068 38.0154 -27.6982 -5.56761 40.232 -0.0 -0.0 -0.0 0.0 -0.0 50.9087 -20.8158 4.52838 -17.0301 -0.319173 -2.58433 -16.077 23.3191 -2.84589 16.1795 -0.0 -0.0 0.0 0.0 0.0 
3282.42 716.139 -741.25 -20.6795 50.1833 12.555 4.3842 0.274238 1.02509 4.38476 0.208457 1.04046 4.38816 0.0663665 1.05906 4.38667 0.232783 1.03529 -5.59885 16.6124 4.97869 -5.44842 27.0454 8.04711 -0.0 0.0 -0.0 2.52749 11.6291 5.63644 -23.4272 -34.6626 49.5687 3.29482 -58.4914 1.84521 63.7313 -2.11714 -7.44115 3.23587 -13.3024 16.3187 -0.0 0.0 -0.0 9.81111 -10.4926 -18.4525 -43.2917 16.591 -50.7649 0.440025 12.2969 -0.0474018 35.0772 0.118272 4.41012 0.0676551 -1.71258 -1.16972 0.0 0.0 0.0 -8.88622 2.99861 11.5931 -7.7863 0.241409 1.16966 37.7193 -27.8405 -5.54668 40.1525 -0.0 -0.0 -0.0 0.0 -0.0 50.1465 -21.1115 4.43436 -18.9429 -0.306719 -2.87754 -17.1574 22.716 -3.01946 15.8081 -0.0 -0.0 0.0 0.0 0.0 
3259.85 721.547 -756.458 -20.7731 50.5017 13.1696 4.36204 0.276847 0.965846 4.36254 0.21483 0.981503 4.36588 0.0802367 1.00153 4.36456 0.237395 0.976291 -5.18189 16.5162 3.42222 -5.01685 27.9278 6.37432 -0.0 0.0 -0.0 2.73416 11.5952 5.98424 -25.6783 -34.7882 50.4444 3.01964 -56.225 1.61345 62.3495 -1.9875 -7.32034 3.11873 -12.3885 15.9327 -0.0 0.0 -0.0 10.1817 -10.4285 -19.1488 -42.9574 16.746 -50.7745 0.423504 11.8485 -0.0439463 35.6479 0.142459 4.47896 0.0317383 -2.06106 -1.07688 0.0 0.0 0.0 -8.97195 2.60003 11.4624 -10.6229 0.289545 1.60223 37.726 -28.2685 -5.57435 40.1766 -0.0 -0.0 -0.0 0.0 -0.0 49.0305 -21.3818 4.33347 -21.7372 -0.270953 -3.30477 -17.8425 23.9457 -3.18368 15.5529 -0.0 -0.0 0.0 0.0 0.0 
3242.77 722.037 -765.75 -20.7917 50.6134 13.2253 4.63643 0.343327 0.713778 4.63667 0.297212 0.734177 4.64029 0.198963 0.766656 4.63961 0.317542 0.725616 -4.45931 16.3537 1.94458 -4.23288 28.5843 4.67797 -0.0 0.0 -0.0 2.54592 11.5625 5.66387 -27.2485 -33.3968 51.0743 2.7668 -53.8752 1.40616 61.8265 -1.93921 -7.27382 2.95986 -11.7172 15.1369 -0.0 0.0 -0.0 10.4676 -9.71227 -19.771 -42.3695 16.9367 -49.7405 0.412439 11.5474 -0.0417029 36.3082 0.171294 4.55829 -0.0025851 -2.45068 -1.01218 0.0 0.0 0.0 -9.45419 2.16156 10.4782 -12.6047 0.310441 1.90558 37.4929 -28.6221 -5.57329 40.1863 -0.0 -0.0 -0.0 0.0 -0.0 48.1702 -21.1057 5.59276 -23.6924 -0.233557 -3.60245 -18.3462 25.1828 -3.32105 15.2973 -0.0 -0.0 0.0 0.0 0.0 
3213.88 723.191 -774.111 -20.4518 50.8993 13.3316 4.81009 0.375073 0.436165 4.81013 0.346559 0.459147 4.81287 0.285247 0.499553 4.8127 0.360562 0.448235 -3.87993 16.1036 0.9675 -3.59583 28.7516 3.49615 -0.0 0.0 -0.0 2.41192 12.3604 5.48392 -27.3475 -32.8838 52.9217 2.40899 -50.03 1.12423 60.5311 -1.82144 -7.1567 2.79383 -10.9867 14.3167 -0.0 0.0 -0.0 10.6992 -9.19989 -20.2733 -41.5966 17.292 -49.1588 0.421021 11.781 -0.043438 36.9155 0.198627 4.63097 -0.0428765 -2.97337 -0.964092 0.0 0.0 0.0 -8.93293 1.58444 10.8831 -14.2725 0.319888 2.16128 36.4639 -29.3524 -5.51377 39.6506 -0.0 -0.0 -0.0 0.0 -0.0 46.6443 -20.5606 7.13688 -25.2366 -0.19685 -3.83658 -18.7837 24.4715 -3.3729 15.3638 -0.0 -0.0 0.0 0.0 0.0 
3190.42 730.84 -783.726 -19.6711 50.9803 11.2006 4.83544 0.3548 0.620954 4.8356 0.314569 0.642272 4.83899 0.230502 0.677004 4.83851 0.334527 0.632107 -2.90216 16.9212 2.61673 -2.53308 28.7948 5.09095 -0.0 0.0 -0.0 2.94431 13.4462 6.42324 -28.176 -31.6592 54.786 1.94988 -44.0019 0.787905 59.6193 -1.74015 -7.0727 2.62357 -10.6019 13.31 -0.0 0.0 -0.0 10.7695 -8.57651 -20.4831 -41.2344 17.4844 -48.7512 0.422514 11.8216 -0.0437432 37.0969 0.206937 4.65262 -0.125043 -4.684 -1.13796 0.0 0.0 0.0 -7.36519 1.07905 11.673 -17.1185 0.318813 2.5979 36.7446 -29.9919 -5.58649 39.0733 -0.0 -0.0 -0.0 0.0 -0.0 44.3394 -20.1246 8.13213 -26.7993 -0.153293 -4.07243 -16.5966 23.9347 -2.95897 16.1991 -0.0 -0.0 0.0 0.0 0.0 
3169.95 743.461 -792.599 -19.398 51.4504 10.483 4.82831 0.436999 0.476347 4.82834 0.405802 0.503188 4.83187 0.338584 0.550667 4.83169 0.421302 0.490285 -2.7943 17.4618 5.16084 -2.41806 27.7842 7.78022 -0.0 0.0 -0.0 2.98799 15.256 6.56815 -29.831 -30.6441 56.2956 1.67244 -39.6377 0.602772 58.064 -1.60463 -6.92649 2.49725 -10.2867 12.5778 -0.0 0.0 -0.0 11.0762 -6.67344 -21.3032 -40.3687 18.012 -49.1935 0.438854 12.2652 -0.0471527 39.4314 0.320019 4.92888 -0.188396 -7.01678 -1.69754 0.0 0.0 0.0 -2.75143 -1.44588 11.2764 -20.8196 0.284995 3.16467 35.9899 -30.0649 -5.5107 38.067 -0.0 -0.0 -0.0 0.0 -0.0 43.0723 -20.9809 9.56044 -27.9822 -0.116047 -4.25016 -13.8303 25.0244 -2.49106 17.2637 -0.0 -0.0 0.0 0.0 0.0 
